HIERARCHY
ROOT hip
{
	OFFSET 0.000000 0.000000 0.000000 
	CHANNELS 6 Xposition Yposition Zposition Xrotation Zrotation Yrotation
	JOINT abdomen
	{
		OFFSET 0.000000 3.402643 0.000000 
		CHANNELS 3 Xrotation Zrotation Yrotation
		JOINT chest
		{
			OFFSET 0.000000 8.438565 -0.680529 
			CHANNELS 3 Xrotation Zrotation Yrotation
			JOINT neck
			{
				OFFSET 0.000000 10.207942 -0.272212 
				CHANNELS 3 Xrotation Zrotation Yrotation
				JOINT head
				{
					OFFSET 0.000000 3.130431 0.000000 
					CHANNELS 3 Xrotation Zrotation Yrotation
					End Site
					{
						OFFSET 0.000000 3.130435 0.000000 
					}
				}
			}
			JOINT lCollar
			{
				OFFSET 3.470700 6.669187 -0.816635 
				CHANNELS 3 Yrotation Zrotation Xrotation
				JOINT lShldr
				{
					OFFSET 3.198488 0.000000 0.000000 
					CHANNELS 3 Zrotation Yrotation Xrotation
					JOINT lForeArm
					{
						OFFSET 10.139888 0.000000 0.000000 
						CHANNELS 3 Yrotation Zrotation Xrotation
						JOINT lHand
						{
							OFFSET 8.370511 0.000000 0.000000 
							CHANNELS 3 Zrotation Yrotation Xrotation
							End Site
							{
								OFFSET 4.083176 0.000000 0.000000 
							}
						}
					}
				}
			}
			JOINT rCollar
			{
				OFFSET -3.470700 6.669187 -0.816635 
				CHANNELS 3 Yrotation Zrotation Xrotation
				JOINT rShldr
				{
					OFFSET -3.198488 0.000000 0.000000 
					CHANNELS 3 Zrotation Yrotation Xrotation
					JOINT rForeArm
					{
						OFFSET -10.139888 0.000000 0.000000 
						CHANNELS 3 Yrotation Zrotation Xrotation
						JOINT rHand
						{
							OFFSET -8.370511 0.000000 0.000000 
							CHANNELS 3 Zrotation Yrotation Xrotation
							End Site
							{
								OFFSET -4.083176 0.000000 0.000000 
							}
						}
					}
				}
			}
		}
	}
	JOINT lThigh
	{
		OFFSET 5.308129 -1.633274 1.361059 
		CHANNELS 3 Xrotation Zrotation Yrotation
		JOINT lShin
		{
			OFFSET -2.041588 -20.007561 0.000000 
			CHANNELS 3 Xrotation Zrotation Yrotation
			JOINT lFoot
			{
				OFFSET 0.000000 -19.190928 -1.224953 
				CHANNELS 3 Xrotation Yrotation Zrotation
				End Site
				{
					OFFSET 0.000000 -2.449906 4.627600 
				}
			}
		}
	}
	JOINT rThigh
	{
		OFFSET -5.308129 -1.633274 1.361059 
		CHANNELS 3 Xrotation Zrotation Yrotation
		JOINT rShin
		{
			OFFSET 2.041588 -20.007561 0.000000 
			CHANNELS 3 Xrotation Zrotation Yrotation
			JOINT rFoot
			{
				OFFSET 0.000000 -19.190928 -1.224953 
				CHANNELS 3 Xrotation Yrotation Zrotation
				End Site
				{
					OFFSET 0.000000 -2.449906 4.627600 
				}
			}
		}
	}
}
MOTION
Frames: 13
Frame Time: 0.033333
-0.396476 44.873028 -0.397454 -2.053809 -0.302284 -3.125059 0.000000 0.000000 0.000000 15.994922 -5.090079 4.735410 7.874397 12.732851 0.902491 3.622256 -1.181948 -10.265897 -23.444038 29.997347 24.993355 -107.341866 2.194732 24.362455 -52.984646 6.343352 -19.111771 16.356970 -33.279789 -2.247348 -0.576820 -14.343023 23.155592 69.058891 10.513781 79.924805 21.873255 -42.198040 -64.239746 -2.420550 33.620567 -69.862427 -3.896227 6.336086 19.104673 129.358521 16.645742 1.184228 -33.763287 8.585322 -4.635330 -12.434389 4.723629 2.926314 61.217632 3.091661 5.383844 -33.888657 -24.402945 10.913062 
-0.536377 44.907017 -0.494694 -2.731223 -1.798706 -5.373957 0.000000 0.000000 0.000000 17.192425 -3.122402 5.095212 7.416034 9.657567 0.664683 3.046626 -1.453079 -7.267982 -17.896690 29.999495 24.992380 -103.693588 14.190410 28.020447 -52.017277 4.059393 -31.215374 7.882874 -33.957634 0.347622 3.136570 -16.464512 24.233761 69.120728 19.355042 77.660133 20.766466 -52.998936 -71.684731 -5.300926 33.790707 -70.263275 -11.199409 9.410953 19.760916 128.371094 16.411156 1.085727 -35.640743 5.700568 -2.182410 -6.679022 6.796563 3.347426 60.559456 2.623224 5.230932 -37.426334 -23.420744 7.302652 
-0.397910 45.991631 -0.202848 -3.656763 -0.843343 -6.963713 0.000000 0.000000 0.000000 17.572845 -3.404947 5.008551 7.094009 6.161959 0.403318 3.632171 -1.070670 -4.659030 -12.551775 29.995657 24.991274 -97.709633 24.943708 32.548565 -55.062279 2.098773 -37.555653 0.236598 -32.454258 1.121679 5.332457 -18.891878 24.993401 69.795685 25.611742 76.487427 13.642667 -65.980064 -73.568550 -7.162141 31.788717 -71.210449 -14.272097 8.313875 19.142307 116.504448 14.378928 0.252688 -35.656246 3.881639 -1.183367 4.506896 5.551147 2.681635 51.511875 0.663409 3.940896 -35.814137 -20.096708 10.167931 
-0.239159 47.679337 0.203278 -3.409017 0.212723 -8.056693 0.000000 0.000000 0.000000 16.255589 -3.725982 5.010346 6.824189 2.851552 0.156542 5.801751 0.165782 -3.037097 -8.265328 29.604315 24.994177 -91.490311 32.901047 38.257401 -58.296291 2.482346 -39.032204 -3.319407 -33.092167 0.875094 6.417621 -21.528887 25.000000 71.621620 29.452875 76.488388 1.530579 -76.640778 -78.125984 -2.850591 28.111149 -70.700806 -14.419662 6.324024 18.469244 96.594887 11.326158 -0.712613 -33.351082 3.053638 1.620223 15.483291 3.749274 1.973251 38.702736 -0.710536 2.385368 -26.137047 -17.324932 17.688301 
-0.032876 49.416794 0.575815 -2.624024 1.759540 -8.118878 0.000000 0.000000 0.000000 14.214272 -4.719031 4.908892 6.953125 0.761719 0.000130 8.393387 2.231832 -3.635377 -7.028149 27.501444 24.990398 -87.185158 37.569126 45.073177 -61.964638 5.215324 -45.720402 -6.205889 -32.963142 2.643613 6.010839 -23.354176 25.000000 72.938156 31.012331 76.773903 -1.653167 -82.794418 -78.470985 4.131993 27.165379 -70.000282 -11.704998 2.927047 17.574501 71.264954 8.538192 -1.039668 -29.198721 -1.553606 -8.999233 22.433523 0.361386 0.973429 30.864300 0.248984 1.806980 -14.238031 -14.975311 23.199072 
0.078918 50.569649 0.845176 -2.330392 1.507324 -8.342587 0.000000 0.000000 0.000000 13.014161 -4.358124 5.043659 7.160650 -1.025388 -0.136872 8.353065 4.921972 -3.596725 -7.291194 25.270723 24.989391 -83.424973 40.549702 52.461765 -66.632904 10.978878 -54.798840 -8.444033 -27.108641 4.173071 5.177923 -24.712765 24.995676 73.204620 30.263237 77.079590 44.132797 -82.790291 -36.235401 -0.524557 25.875427 -70.943932 -4.911713 0.507613 17.186317 46.812527 8.338549 -0.162846 -25.099644 -7.063701 -13.783810 27.013363 -1.854984 0.312394 29.303581 3.461322 2.350805 -7.282566 -13.847939 18.041162 
0.371755 50.852436 1.028119 -2.767202 2.598697 -8.416761 0.000000 0.000000 0.000000 12.752246 -6.122296 4.674984 7.256547 -0.449218 -0.087965 9.016761 5.428312 -3.677998 -8.305311 26.093975 24.992990 -84.636368 39.673588 49.791553 -68.242470 9.095321 -56.345398 -7.773268 -26.133816 5.846671 4.989678 -24.125977 25.000000 74.410355 27.176054 78.406097 36.049580 -75.806725 -43.352623 5.118343 25.084265 -69.395935 1.113949 -1.781786 16.560446 22.941111 5.472595 0.517440 -23.787584 -15.578391 -17.444754 24.957088 -4.403884 -0.466123 43.598297 3.915090 3.803956 -10.088147 -19.971199 14.582575 
0.576934 50.406033 0.955428 -1.874772 3.046075 -8.028490 0.000000 0.000000 0.000000 11.568954 -7.672854 4.404307 7.679362 2.099606 0.097948 8.963019 5.636336 -4.582571 -10.132051 28.104891 24.987944 -88.034943 35.949394 40.639462 -69.293854 2.357547 -55.181648 -6.478305 -26.070747 8.127162 4.047190 -22.398548 24.792879 75.802727 23.017193 80.099022 28.585415 -65.784515 -49.595951 3.984120 27.232189 -68.982307 2.340812 -2.446132 16.346249 13.278376 4.098477 0.862321 -22.419996 -18.535410 -21.537298 17.826998 -5.682046 -0.850176 63.191761 3.173825 5.554349 -12.174328 -24.507782 14.995329 
0.715750 49.288414 0.690982 -1.268087 2.589968 -6.637294 0.000000 0.000000 0.000000 11.432386 -8.492596 4.245392 7.783153 5.185465 0.323595 8.295819 5.528503 -6.710570 -13.665640 29.998482 24.991823 -92.164978 28.342194 30.146545 -67.842308 -4.425438 -47.706394 -2.724231 -29.698362 8.517475 1.974193 -20.392733 23.923618 77.105011 18.409693 81.902336 21.989773 -55.309757 -52.951057 -0.603363 30.730900 -69.747635 0.250422 -1.784324 16.548449 18.645206 4.623849 0.613900 -20.851936 -15.970020 -19.663399 8.819831 -5.844710 -0.777101 83.559624 2.674770 7.147234 -11.207889 -27.548758 19.111624 
0.752192 47.628723 0.416873 -2.350575 0.320235 -6.435609 0.000000 0.000000 0.000000 13.400304 -7.371111 4.390820 7.417132 6.835726 0.452999 7.457104 5.248265 -7.472562 -15.917318 29.993872 24.984312 -94.202080 18.866327 21.892548 -66.237335 -9.171453 -39.176235 3.359457 -28.605637 7.466611 1.748779 -19.204685 23.841265 78.583725 14.400927 83.709122 16.108324 -45.080086 -53.653423 -1.005508 32.187405 -70.117264 -0.682395 1.196938 17.472578 30.453236 6.008181 0.222819 -19.710735 -13.392644 -14.229352 0.838307 -3.849375 -0.031727 101.543671 1.591831 8.096685 -9.714673 -29.454620 19.377419 
0.975491 45.896034 0.119438 -4.247293 -0.649525 -6.924378 0.000000 0.000000 0.000000 16.339657 -6.992091 4.308480 6.638483 7.011493 0.462704 6.486378 5.520968 -7.347983 -16.605038 29.995256 24.995510 -93.747688 8.294019 14.942154 -67.148323 -13.081951 -34.846916 8.405912 -26.734383 7.667078 3.171132 -18.981760 24.335022 80.184021 10.739208 85.565826 12.911616 -33.258610 -55.580673 5.926624 30.585802 -68.716057 -0.702931 1.951288 17.739140 43.090481 8.514908 0.073763 -23.116991 -10.630171 -9.075659 -6.915773 -3.414045 0.319342 116.014435 -0.057650 8.367117 -9.140020 -28.544207 18.072660 
1.371453 44.779633 -0.276310 -4.537881 1.445935 -6.427669 0.000000 0.000000 0.000000 17.468676 -8.974420 3.825889 5.988907 7.284901 0.483321 5.483774 5.952077 -8.365266 -18.199295 29.994978 24.992176 -92.297333 -4.003914 9.757920 -70.016266 -13.520008 -28.598177 12.771480 -24.887011 5.589673 3.548848 -18.745871 24.459503 81.471893 5.973226 87.716469 10.983979 -22.607592 -55.026836 11.791873 26.907587 -68.097176 -0.786681 -1.221625 16.733036 50.826313 10.632352 0.159976 -28.745712 -7.761306 -6.506731 -16.803759 -6.082981 -0.127419 124.947029 -2.244008 8.108900 -9.173934 -24.804661 19.380857 
1.535561 44.761574 -0.566733 -3.514328 3.444720 -4.842246 0.000000 0.000000 0.000000 16.991440 -10.927889 3.451188 5.802256 8.671418 0.593963 5.146938 5.680051 -10.245237 -20.812685 29.995224 24.991163 -91.323013 -16.203199 7.107887 -76.107452 -10.616253 -26.236649 14.051270 -23.518888 3.177152 2.016927 -17.665880 23.906765 81.151169 -0.968195 90.108139 10.688833 -18.517925 -51.169884 12.632226 24.585245 -68.285248 2.324159 -3.730407 15.965484 49.642620 11.115270 0.306685 -31.580227 -7.607222 -5.013651 -25.348593 -7.928781 -0.323273 125.206779 -2.985544 7.954358 -11.132200 -21.526398 21.311483 
